<svg width="28" height="25" viewBox="0 0 28 25" fill="none" xmlns="http://www.w3.org/2000/svg">
<path fill-rule="evenodd" clip-rule="evenodd" d="M3.41509 3.37425C4.60327 2.18643 6.21456 1.51915 7.89464 1.51915C9.57472 1.51915 11.186 2.18643 12.3742 3.37425L14.2306 5.22911L16.0871 3.37425C16.6716 2.76909 17.3707 2.2864 18.1437 1.95434C18.9167 1.62228 19.7482 1.44749 20.5894 1.44018C21.4307 1.43287 22.2651 1.59318 23.0437 1.91176C23.8224 2.23034 24.5298 2.70081 25.1247 3.29571C25.7196 3.89062 26.1901 4.59804 26.5087 5.37671C26.8273 6.15539 26.9876 6.98971 26.9803 7.831C26.9729 8.67229 26.7982 9.5037 26.4661 10.2767C26.134 11.0497 25.6513 11.7489 25.0462 12.3334L14.2306 23.1505L3.41509 12.3334C2.22728 11.1452 1.56 9.53388 1.56 7.8538C1.56 6.17372 2.22728 4.56242 3.41509 3.37425Z" stroke="#B0B1B4" stroke-width="2.016" stroke-linejoin="round"/>
</svg>
