<svg width="18" height="18" viewBox="0 0 18 18" fill="none" xmlns="http://www.w3.org/2000/svg">
<path d="M8.59979 5.07104C8.35229 4.77404 7.9109 4.73392 7.6139 4.98141C7.31691 5.2289 7.27678 5.6703 7.52428 5.96729L8.59979 5.07104ZM10.8242 8.83375L11.3619 9.28188C11.5783 9.02229 11.5783 8.64521 11.3619 8.38562L10.8242 8.83375ZM7.52428 11.7002C7.27678 11.9972 7.31691 12.4386 7.6139 12.6861C7.9109 12.9336 8.35229 12.8935 8.59979 12.5965L7.52428 11.7002ZM8.06203 5.51917L7.52428 5.96729L10.2864 9.28188L10.8242 8.83375L11.3619 8.38562L8.59979 5.07104L8.06203 5.51917ZM10.8242 8.83375L10.2864 8.38562L7.52428 11.7002L8.06203 12.1483L8.59979 12.5965L11.3619 9.28188L10.8242 8.83375ZM9 1.5V2.2C12.7555 2.2 15.8 5.24446 15.8 9H16.5H17.2C17.2 4.47126 13.5287 0.8 9 0.8V1.5ZM16.5 9H15.8C15.8 12.7555 12.7555 15.8 9 15.8V16.5V17.2C13.5287 17.2 17.2 13.5287 17.2 9H16.5ZM9 16.5V15.8C5.24446 15.8 2.2 12.7555 2.2 9H1.5H0.8C0.8 13.5287 4.47126 17.2 9 17.2V16.5ZM1.5 9H2.2C2.2 5.24446 5.24446 2.2 9 2.2V1.5V0.8C4.47126 0.8 0.8 4.47126 0.8 9H1.5Z" fill="black"/>
</svg>
