<svg width="16" height="16" viewBox="0 0 16 16" fill="none" xmlns="http://www.w3.org/2000/svg">
<g clip-path="url(#clip0_227_488)">
<path d="M8.00333 16.0067C12.4234 16.0067 16.0067 12.4234 16.0067 8.00333C16.0067 3.58321 12.4234 0 8.00333 0C3.58321 0 0 3.58321 0 8.00333C0 12.4234 3.58321 16.0067 8.00333 16.0067Z" fill="#061023"/>
<path fill-rule="evenodd" clip-rule="evenodd" d="M3.61847 7.9169C5.95083 6.90399 7.50351 6.23093 8.28319 5.9044C10.5023 4.97812 10.9687 4.81819 11.2686 4.81152C11.3352 4.81152 11.4819 4.82485 11.5818 4.90482C11.6618 4.97146 11.6818 5.05809 11.6951 5.12473C11.7084 5.19137 11.7218 5.33131 11.7084 5.43793C11.5885 6.70407 11.0687 9.77612 10.8021 11.1889C10.6889 11.7886 10.4689 11.9885 10.2557 12.0085C9.78923 12.0485 9.43604 11.702 8.98956 11.4088C8.28319 10.949 7.89002 10.6624 7.20364 10.2093C6.41063 9.68949 6.92375 9.40294 7.3769 8.93647C7.49685 8.81652 9.54266 6.95063 9.58265 6.78404C9.58931 6.76404 9.58931 6.68408 9.54266 6.64409C9.49602 6.60411 9.42938 6.61744 9.37607 6.63077C9.30276 6.64409 8.18323 7.39045 6.00414 8.86317C5.68427 9.08308 5.39772 9.1897 5.13783 9.18304C4.85128 9.17637 4.30485 9.0231 3.89168 8.88982C3.39189 8.72989 2.99206 8.64326 3.02538 8.36338C3.04537 8.21677 3.24529 8.07017 3.61847 7.9169Z" fill="white"/>
</g>
<defs>
<clipPath id="clip0_227_488">
<rect width="16" height="16" fill="white"/>
</clipPath>
</defs>
</svg>
