<svg width="12" height="11" viewBox="0 0 12 11" fill="none" xmlns="http://www.w3.org/2000/svg">
<path d="M7.76584 7.01973C7.92382 7.0724 8.09459 6.98701 8.14725 6.82903C8.19991 6.67104 8.11453 6.50027 7.95654 6.44761L7.76584 7.01973ZM6.01086 6.1169H5.70933C5.70933 6.24669 5.79238 6.36191 5.91551 6.40296L6.01086 6.1169ZM6.3124 3.53788C6.3124 3.37135 6.1774 3.23635 6.01086 3.23635C5.84433 3.23635 5.70933 3.37135 5.70933 3.53788H6.3124ZM7.86119 6.73367L7.95654 6.44761L6.10622 5.83084L6.01086 6.1169L5.91551 6.40296L7.76584 7.01973L7.86119 6.73367ZM6.01086 6.1169H6.3124V3.53788H6.01086H5.70933V6.1169H6.01086ZM10.9451 5.50012H10.6435C10.6435 8.05867 8.56942 10.1328 6.01086 10.1328V10.4343V10.7359C8.90248 10.7359 11.2466 8.39174 11.2466 5.50012H10.9451ZM6.01086 10.4343V10.1328C3.45231 10.1328 1.37819 8.05867 1.37819 5.50012H1.07666H0.775126C0.775126 8.39174 3.11925 10.7359 6.01086 10.7359V10.4343ZM1.07666 5.50012H1.37819C1.37819 2.94157 3.45231 0.867453 6.01086 0.867453V0.565918V0.264383C3.11925 0.264383 0.775126 2.6085 0.775126 5.50012H1.07666ZM6.01086 0.565918V0.867453C8.56942 0.867453 10.6435 2.94157 10.6435 5.50012H10.9451H11.2466C11.2466 2.6085 8.90248 0.264383 6.01086 0.264383V0.565918Z" fill="#5383E5"/>
</svg>
