<svg width="21" height="21" viewBox="0 0 21 21" fill="none" xmlns="http://www.w3.org/2000/svg">
<path d="M14.0378 13.2588C14.4045 13.381 14.8009 13.1828 14.9232 12.816C15.0454 12.4493 14.8472 12.0529 14.4805 11.9306L14.0378 13.2588ZM10.8025 11.4425H10.1025C10.1025 11.7438 10.2953 12.0113 10.5811 12.1065L10.8025 11.4425ZM11.5025 6.62453C11.5025 6.23793 11.1891 5.92453 10.8025 5.92453C10.4159 5.92453 10.1025 6.23793 10.1025 6.62453H11.5025ZM14.2591 12.5947L14.4805 11.9306L11.0238 10.7784L10.8025 11.4425L10.5811 12.1065L14.0378 13.2588L14.2591 12.5947ZM10.8025 11.4425H11.5025V6.62453H10.8025H10.1025V11.4425H10.8025ZM20.0202 10.2903H19.3202C19.3202 14.9945 15.5067 18.808 10.8025 18.808V19.508V20.208C16.2799 20.208 20.7202 15.7677 20.7202 10.2903H20.0202ZM10.8025 19.508V18.808C6.09824 18.808 2.28472 14.9945 2.28472 10.2903H1.58472H0.884717C0.884717 15.7677 5.32504 20.208 10.8025 20.208V19.508ZM1.58472 10.2903H2.28472C2.28472 5.58603 6.09824 1.77251 10.8025 1.77251V1.07251V0.37251C5.32504 0.37251 0.884717 4.81283 0.884717 10.2903H1.58472ZM10.8025 1.07251V1.77251C15.5067 1.77251 19.3202 5.58603 19.3202 10.2903H20.0202H20.7202C20.7202 4.81283 16.2799 0.37251 10.8025 0.37251V1.07251Z" fill="black"/>
</svg>
